ISO-10303-21;
HEADER;
FILE_DESCRIPTION( ( 'STEP AP203' ), '1' );
FILE_NAME( 'C:/home/Customer/39_\X2\30C630AF30CE30B930BF30FC\X0\/15_PSJ/6_\X2\4F8B984C\X0\/plate.step', '  ', ( '  ' ), ( '  ' ), 'PSStep 20.0.26', '  ', '  ' );
FILE_SCHEMA( ( 'CONFIG_CONTROL_DESIGN' ) );
ENDSEC;
DATA;
#1 = DESIGN_CONTEXT( '', #41, 'design' );
#2 = APPLICATION_PROTOCOL_DEFINITION( 'international standard', 'config_control_design', 1994, #41 );
#3 = PRODUCT_CATEGORY_RELATIONSHIP( 'NONE', 'NONE', #42, #43 );
#4 = DATE_AND_TIME( #44, #45 );
#5 = DATE_TIME_ROLE( 'creation_date' );
#6 = DATE_TIME_ROLE( 'classification_date' );
#7 = PERSON_AND_ORGANIZATION_ROLE( 'creator' );
#8 = PERSON_AND_ORGANIZATION_ROLE( 'design_supplier' );
#9 = PERSON_AND_ORGANIZATION_ROLE( 'classification_officer' );
#10 = PERSON_AND_ORGANIZATION_ROLE( 'design_owner' );
#11 = APPROVAL_PERSON_ORGANIZATION( #46, #47, #48 );
#12 = APPROVAL_DATE_TIME( #4, #47 );
#13 = CC_DESIGN_APPROVAL( #47, ( #49, #50, #51 ) );
#14 = CC_DESIGN_DATE_AND_TIME_ASSIGNMENT( #4, #5, ( #51 ) );
#15 = CC_DESIGN_DATE_AND_TIME_ASSIGNMENT( #4, #6, ( #49 ) );
#16 = CC_DESIGN_PERSON_AND_ORGANIZATION_ASSIGNMENT( #46, #10, ( #52 ) );
#17 = CC_DESIGN_PERSON_AND_ORGANIZATION_ASSIGNMENT( #46, #7, ( #51 ) );
#18 = CC_DESIGN_PERSON_AND_ORGANIZATION_ASSIGNMENT( #46, #7, ( #50 ) );
#19 = CC_DESIGN_PERSON_AND_ORGANIZATION_ASSIGNMENT( #46, #8, ( #50 ) );
#20 = CC_DESIGN_SECURITY_CLASSIFICATION( #49, ( #50 ) );
#21 = CC_DESIGN_PERSON_AND_ORGANIZATION_ASSIGNMENT( #46, #9, ( #49 ) );
#22 = SHAPE_DEFINITION_REPRESENTATION( #53, #54 );
#23 = PRODUCT_CATEGORY_RELATIONSHIP( 'NONE', 'NONE', #42, #55 );
#24 = DATE_AND_TIME( #56, #57 );
#25 = APPROVAL_DATE_TIME( #24, #47 );
#26 = CC_DESIGN_APPROVAL( #47, ( #49, #58, #59 ) );
#27 = CC_DESIGN_DATE_AND_TIME_ASSIGNMENT( #24, #5, ( #59 ) );
#28 = CC_DESIGN_DATE_AND_TIME_ASSIGNMENT( #24, #6, ( #49 ) );
#29 = CC_DESIGN_PERSON_AND_ORGANIZATION_ASSIGNMENT( #46, #10, ( #60 ) );
#30 = CC_DESIGN_PERSON_AND_ORGANIZATION_ASSIGNMENT( #46, #7, ( #59 ) );
#31 = CC_DESIGN_PERSON_AND_ORGANIZATION_ASSIGNMENT( #46, #7, ( #58 ) );
#32 = CC_DESIGN_PERSON_AND_ORGANIZATION_ASSIGNMENT( #46, #8, ( #58 ) );
#33 = CC_DESIGN_SECURITY_CLASSIFICATION( #49, ( #58 ) );
#34 = CONTEXT_DEPENDENT_SHAPE_REPRESENTATION( #61, #62 );
#35 = SHAPE_DEFINITION_REPRESENTATION( #63, #64 );
#36 = SHAPE_REPRESENTATION_RELATIONSHIP( 'NONE', 'NONE', #64, #65 );
#37 =  ( GEOMETRIC_REPRESENTATION_CONTEXT( 3 )GLOBAL_UNCERTAINTY_ASSIGNED_CONTEXT( ( #68 ) )GLOBAL_UNIT_ASSIGNED_CONTEXT( ( #70, #71, #72 ) )REPRESENTATION_CONTEXT( 'NONE', 'WORKSPACE' ) );
#41 = APPLICATION_CONTEXT( 'configuration controlled 3D designs of mechanical parts and assemblies' );
#42 = PRODUCT_CATEGORY( 'part', 'NONE' );
#43 = PRODUCT_RELATED_PRODUCT_CATEGORY( 'detail', ' ', ( #52 ) );
#44 = CALENDAR_DATE( 2022, 15, 9 );
#45 = LOCAL_TIME( 10, 34, 17.0000000000000, #74 );
#46 = PERSON_AND_ORGANIZATION( #75, #76 );
#47 = APPROVAL( #77, 'SOLID MODEL' );
#48 = APPROVAL_ROLE( 'APPROVED' );
#49 = SECURITY_CLASSIFICATION( '', '', #78 );
#50 = PRODUCT_DEFINITION_FORMATION_WITH_SPECIFIED_SOURCE( ' ', 'NONE', #52, .NOT_KNOWN. );
#51 = PRODUCT_DEFINITION( 'NONE', 'NONE', #50, #1 );
#52 = PRODUCT( 'Assem1', 'Assem1', 'PART-Assem1-DESC', ( #79 ) );
#53 = PRODUCT_DEFINITION_SHAPE( 'NONE', 'NONE', #51 );
#54 = SHAPE_REPRESENTATION( 'Assem1', ( #80, #81 ), #82 );
#55 = PRODUCT_RELATED_PRODUCT_CATEGORY( 'detail', ' ', ( #60 ) );
#56 = CALENDAR_DATE( 2022, 15, 9 );
#57 = LOCAL_TIME( 10, 34, 17.0000000000000, #83 );
#58 = PRODUCT_DEFINITION_FORMATION_WITH_SPECIFIED_SOURCE( ' ', 'NONE', #60, .NOT_KNOWN. );
#59 = PRODUCT_DEFINITION( 'NONE', 'NONE', #58, #1 );
#60 = PRODUCT( '', '', 'PART--DESC', ( #79 ) );
#61 = ( REPRESENTATION_RELATIONSHIP( '', '', #64, #54 )REPRESENTATION_RELATIONSHIP_WITH_TRANSFORMATION( #86 )SHAPE_REPRESENTATION_RELATIONSHIP(  ) );
#62 = PRODUCT_DEFINITION_SHAPE( 'NAUO-PROD-DEF', 'NAUO-PROD-DEF', #88 );
#63 = PRODUCT_DEFINITION_SHAPE( 'NONE', 'NONE', #59 );
#64 = SHAPE_REPRESENTATION( '', ( #80 ), #82 );
#65 = ADVANCED_BREP_SHAPE_REPRESENTATION( '', ( #89 ), #37 );
#68 = UNCERTAINTY_MEASURE_WITH_UNIT( LENGTH_MEASURE( 1.00000000000000E-06 ), #70, '', '' );
#70 =  ( CONVERSION_BASED_UNIT( 'METRE', #92 )LENGTH_UNIT(  )NAMED_UNIT( #95 ) );
#71 =  ( NAMED_UNIT( #97 )PLANE_ANGLE_UNIT(  )SI_UNIT( $, .RADIAN. ) );
#72 =  ( NAMED_UNIT( #97 )SI_UNIT( $, .STERADIAN. )SOLID_ANGLE_UNIT(  ) );
#74 = COORDINATED_UNIVERSAL_TIME_OFFSET( 9, 0, .AHEAD. );
#75 = PERSON( '', 'UNSPECIFIED', $, $, $, $ );
#76 = ORGANIZATION( 'UNSPECIFIED', 'UNSPECIFIED', 'UNSPECIFIED' );
#77 = APPROVAL_STATUS( 'approved' );
#78 = SECURITY_CLASSIFICATION_LEVEL( 'unclassified' );
#79 = MECHANICAL_CONTEXT( '', #41, 'mechanical' );
#80 = AXIS2_PLACEMENT_3D( '', #103, #104, #105 );
#81 = AXIS2_PLACEMENT_3D( '', #106, #107, #108 );
#82 =  ( GEOMETRIC_REPRESENTATION_CONTEXT( 3 )GLOBAL_UNCERTAINTY_ASSIGNED_CONTEXT( ( #111 ) )GLOBAL_UNIT_ASSIGNED_CONTEXT( ( #113, #114, #115 ) )REPRESENTATION_CONTEXT( 'NONE', 'WORKSPACE' ) );
#83 = COORDINATED_UNIVERSAL_TIME_OFFSET( 9, 0, .AHEAD. );
#86 = ITEM_DEFINED_TRANSFORMATION( '', '', #80, #81 );
#88 = NEXT_ASSEMBLY_USAGE_OCCURRENCE( 'NAUO1', '\X2\30DC30C330AF30B9\X0\1', '\X2\30DC30C330AF30B9\X0\1', #51, #59, $ );
#89 = MANIFOLD_SOLID_BREP( '', #117 );
#92 = LENGTH_MEASURE_WITH_UNIT( LENGTH_MEASURE( 1.00000000000000 ), #118 );
#95 = DIMENSIONAL_EXPONENTS( 1.00000000000000, 0.00000000000000, 0.00000000000000, 0.00000000000000, 0.00000000000000, 0.00000000000000, 0.00000000000000 );
#97 = DIMENSIONAL_EXPONENTS( 0.00000000000000, 0.00000000000000, 0.00000000000000, 0.00000000000000, 0.00000000000000, 0.00000000000000, 0.00000000000000 );
#103 = CARTESIAN_POINT( '', ( 0.00000000000000, 0.00000000000000, 0.00000000000000 ) );
#104 = DIRECTION( '', ( 0.00000000000000, 0.00000000000000, 1.00000000000000 ) );
#105 = DIRECTION( '', ( 1.00000000000000, 0.00000000000000, 0.00000000000000 ) );
#106 = CARTESIAN_POINT( '', ( 0.700000000000000, 0.0500000000000000, -0.0836660026534076 ) );
#107 = DIRECTION( '', ( 0.00000000000000, 0.00000000000000, 1.00000000000000 ) );
#108 = DIRECTION( '', ( 1.00000000000000, 0.00000000000000, 0.00000000000000 ) );
#111 = UNCERTAINTY_MEASURE_WITH_UNIT( LENGTH_MEASURE( 1.00000000000000E-06 ), #113, '', '' );
#113 =  ( CONVERSION_BASED_UNIT( 'METRE', #121 )LENGTH_UNIT(  )NAMED_UNIT( #124 ) );
#114 =  ( NAMED_UNIT( #126 )PLANE_ANGLE_UNIT(  )SI_UNIT( $, .RADIAN. ) );
#115 =  ( NAMED_UNIT( #126 )SI_UNIT( $, .STERADIAN. )SOLID_ANGLE_UNIT(  ) );
#117 = CLOSED_SHELL( '', ( #132, #133, #134, #135, #136, #137 ) );
#118 =  ( LENGTH_UNIT(  )NAMED_UNIT( #95 )SI_UNIT( $, .METRE. ) );
#121 = LENGTH_MEASURE_WITH_UNIT( LENGTH_MEASURE( 1.00000000000000 ), #139 );
#124 = DIMENSIONAL_EXPONENTS( 1.00000000000000, 0.00000000000000, 0.00000000000000, 0.00000000000000, 0.00000000000000, 0.00000000000000, 0.00000000000000 );
#126 = DIMENSIONAL_EXPONENTS( 0.00000000000000, 0.00000000000000, 0.00000000000000, 0.00000000000000, 0.00000000000000, 0.00000000000000, 0.00000000000000 );
#132 = ADVANCED_FACE( '', ( #140 ), #141, .T. );
#133 = ADVANCED_FACE( '', ( #142 ), #143, .T. );
#134 = ADVANCED_FACE( '', ( #144 ), #145, .T. );
#135 = ADVANCED_FACE( '', ( #146 ), #147, .T. );
#136 = ADVANCED_FACE( '', ( #148 ), #149, .T. );
#137 = ADVANCED_FACE( '', ( #150 ), #151, .T. );
#139 =  ( LENGTH_UNIT(  )NAMED_UNIT( #124 )SI_UNIT( $, .METRE. ) );
#140 = FACE_OUTER_BOUND( '', #153, .T. );
#141 = PLANE( '', #154 );
#142 = FACE_OUTER_BOUND( '', #155, .T. );
#143 = PLANE( '', #156 );
#144 = FACE_OUTER_BOUND( '', #157, .T. );
#145 = PLANE( '', #158 );
#146 = FACE_OUTER_BOUND( '', #159, .T. );
#147 = PLANE( '', #160 );
#148 = FACE_OUTER_BOUND( '', #161, .T. );
#149 = PLANE( '', #162 );
#150 = FACE_OUTER_BOUND( '', #163, .T. );
#151 = PLANE( '', #164 );
#153 = EDGE_LOOP( '', ( #165, #166, #167, #168 ) );
#154 = AXIS2_PLACEMENT_3D( '', #169, #170, #171 );
#155 = EDGE_LOOP( '', ( #172, #173, #174, #175 ) );
#156 = AXIS2_PLACEMENT_3D( '', #176, #177, #178 );
#157 = EDGE_LOOP( '', ( #179, #180, #181, #182 ) );
#158 = AXIS2_PLACEMENT_3D( '', #183, #184, #185 );
#159 = EDGE_LOOP( '', ( #186, #187, #188, #189 ) );
#160 = AXIS2_PLACEMENT_3D( '', #190, #191, #192 );
#161 = EDGE_LOOP( '', ( #193, #194, #195, #196 ) );
#162 = AXIS2_PLACEMENT_3D( '', #197, #198, #199 );
#163 = EDGE_LOOP( '', ( #200, #201, #202, #203 ) );
#164 = AXIS2_PLACEMENT_3D( '', #204, #205, #206 );
#165 = ORIENTED_EDGE( '', *, *, #207, .T. );
#166 = ORIENTED_EDGE( '', *, *, #208, .T. );
#167 = ORIENTED_EDGE( '', *, *, #209, .F. );
#168 = ORIENTED_EDGE( '', *, *, #210, .T. );
#169 = CARTESIAN_POINT( '', ( -0.100000000000000, 0.00000000000000, 0.00000000000000 ) );
#170 = DIRECTION( '', ( -1.00000000000000, 0.00000000000000, 0.00000000000000 ) );
#171 = DIRECTION( '', ( 0.00000000000000, 0.00000000000000, 1.00000000000000 ) );
#172 = ORIENTED_EDGE( '', *, *, #209, .T. );
#173 = ORIENTED_EDGE( '', *, *, #211, .T. );
#174 = ORIENTED_EDGE( '', *, *, #212, .F. );
#175 = ORIENTED_EDGE( '', *, *, #213, .T. );
#176 = CARTESIAN_POINT( '', ( 0.00000000000000, 0.0500000000000000, 0.00000000000000 ) );
#177 = DIRECTION( '', ( 0.00000000000000, 1.00000000000000, 0.00000000000000 ) );
#178 = DIRECTION( '', ( 0.00000000000000, 0.00000000000000, 1.00000000000000 ) );
#179 = ORIENTED_EDGE( '', *, *, #214, .T. );
#180 = ORIENTED_EDGE( '', *, *, #215, .T. );
#181 = ORIENTED_EDGE( '', *, *, #207, .F. );
#182 = ORIENTED_EDGE( '', *, *, #216, .T. );
#183 = CARTESIAN_POINT( '', ( 0.00000000000000, -0.0500000000000000, 0.00000000000000 ) );
#184 = DIRECTION( '', ( 0.00000000000000, -1.00000000000000, 0.00000000000000 ) );
#185 = DIRECTION( '', ( 0.00000000000000, 0.00000000000000, -1.00000000000000 ) );
#186 = ORIENTED_EDGE( '', *, *, #215, .F. );
#187 = ORIENTED_EDGE( '', *, *, #217, .F. );
#188 = ORIENTED_EDGE( '', *, *, #211, .F. );
#189 = ORIENTED_EDGE( '', *, *, #208, .F. );
#190 = CARTESIAN_POINT( '', ( 0.00000000000000, 0.00000000000000, 0.00500000000000000 ) );
#191 = DIRECTION( '', ( 0.00000000000000, 0.00000000000000, 1.00000000000000 ) );
#192 = DIRECTION( '', ( 1.00000000000000, 0.00000000000000, 0.00000000000000 ) );
#193 = ORIENTED_EDGE( '', *, *, #218, .T. );
#194 = ORIENTED_EDGE( '', *, *, #212, .T. );
#195 = ORIENTED_EDGE( '', *, *, #217, .T. );
#196 = ORIENTED_EDGE( '', *, *, #214, .F. );
#197 = CARTESIAN_POINT( '', ( 0.100000000000000, 0.00000000000000, 0.00000000000000 ) );
#198 = DIRECTION( '', ( 1.00000000000000, 0.00000000000000, 0.00000000000000 ) );
#199 = DIRECTION( '', ( 0.00000000000000, 0.00000000000000, -1.00000000000000 ) );
#200 = ORIENTED_EDGE( '', *, *, #218, .F. );
#201 = ORIENTED_EDGE( '', *, *, #216, .F. );
#202 = ORIENTED_EDGE( '', *, *, #210, .F. );
#203 = ORIENTED_EDGE( '', *, *, #213, .F. );
#204 = CARTESIAN_POINT( '', ( 0.00000000000000, 0.00000000000000, 0.00000000000000 ) );
#205 = DIRECTION( '', ( 0.00000000000000, 0.00000000000000, -1.00000000000000 ) );
#206 = DIRECTION( '', ( -1.00000000000000, 0.00000000000000, 0.00000000000000 ) );
#207 = EDGE_CURVE( '', #219, #220, #221, .T. );
#208 = EDGE_CURVE( '', #220, #222, #223, .T. );
#209 = EDGE_CURVE( '', #224, #222, #225, .T. );
#210 = EDGE_CURVE( '', #224, #219, #226, .T. );
#211 = EDGE_CURVE( '', #222, #227, #228, .T. );
#212 = EDGE_CURVE( '', #229, #227, #230, .T. );
#213 = EDGE_CURVE( '', #229, #224, #231, .T. );
#214 = EDGE_CURVE( '', #232, #233, #234, .T. );
#215 = EDGE_CURVE( '', #233, #220, #235, .T. );
#216 = EDGE_CURVE( '', #219, #232, #236, .T. );
#217 = EDGE_CURVE( '', #227, #233, #237, .T. );
#218 = EDGE_CURVE( '', #232, #229, #238, .T. );
#219 = VERTEX_POINT( '', #239 );
#220 = VERTEX_POINT( '', #240 );
#221 = LINE( '', #241, #242 );
#222 = VERTEX_POINT( '', #243 );
#223 = LINE( '', #244, #245 );
#224 = VERTEX_POINT( '', #246 );
#225 = LINE( '', #247, #248 );
#226 = LINE( '', #249, #250 );
#227 = VERTEX_POINT( '', #251 );
#228 = LINE( '', #252, #253 );
#229 = VERTEX_POINT( '', #254 );
#230 = LINE( '', #255, #256 );
#231 = LINE( '', #257, #258 );
#232 = VERTEX_POINT( '', #259 );
#233 = VERTEX_POINT( '', #260 );
#234 = LINE( '', #261, #262 );
#235 = LINE( '', #263, #264 );
#236 = LINE( '', #265, #266 );
#237 = LINE( '', #267, #268 );
#238 = LINE( '', #269, #270 );
#239 = CARTESIAN_POINT( '', ( -0.100000000000000, -0.0500000000000000, 0.00000000000000 ) );
#240 = CARTESIAN_POINT( '', ( -0.100000000000000, -0.0500000000000000, 0.00500000000000000 ) );
#241 = CARTESIAN_POINT( '', ( -0.100000000000000, -0.0500000000000000, 0.00000000000000 ) );
#242 = VECTOR( '', #271, 1.00000000000000 );
#243 = CARTESIAN_POINT( '', ( -0.100000000000000, 0.0500000000000000, 0.00500000000000000 ) );
#244 = CARTESIAN_POINT( '', ( -0.100000000000000, 0.00000000000000, 0.00500000000000000 ) );
#245 = VECTOR( '', #272, 1.00000000000000 );
#246 = CARTESIAN_POINT( '', ( -0.100000000000000, 0.0500000000000000, 0.00000000000000 ) );
#247 = CARTESIAN_POINT( '', ( -0.100000000000000, 0.0500000000000000, 0.00000000000000 ) );
#248 = VECTOR( '', #273, 1.00000000000000 );
#249 = CARTESIAN_POINT( '', ( -0.100000000000000, 0.00000000000000, 0.00000000000000 ) );
#250 = VECTOR( '', #274, 1.00000000000000 );
#251 = CARTESIAN_POINT( '', ( 0.100000000000000, 0.0500000000000000, 0.00500000000000000 ) );
#252 = CARTESIAN_POINT( '', ( 0.00000000000000, 0.0500000000000000, 0.00500000000000000 ) );
#253 = VECTOR( '', #275, 1.00000000000000 );
#254 = CARTESIAN_POINT( '', ( 0.100000000000000, 0.0500000000000000, 0.00000000000000 ) );
#255 = CARTESIAN_POINT( '', ( 0.100000000000000, 0.0500000000000000, 0.00000000000000 ) );
#256 = VECTOR( '', #276, 1.00000000000000 );
#257 = CARTESIAN_POINT( '', ( 0.00000000000000, 0.0500000000000000, 0.00000000000000 ) );
#258 = VECTOR( '', #277, 1.00000000000000 );
#259 = CARTESIAN_POINT( '', ( 0.100000000000000, -0.0500000000000000, 0.00000000000000 ) );
#260 = CARTESIAN_POINT( '', ( 0.100000000000000, -0.0500000000000000, 0.00500000000000000 ) );
#261 = CARTESIAN_POINT( '', ( 0.100000000000000, -0.0500000000000000, 0.00000000000000 ) );
#262 = VECTOR( '', #278, 1.00000000000000 );
#263 = CARTESIAN_POINT( '', ( 0.00000000000000, -0.0500000000000000, 0.00500000000000000 ) );
#264 = VECTOR( '', #279, 1.00000000000000 );
#265 = CARTESIAN_POINT( '', ( 0.00000000000000, -0.0500000000000000, 0.00000000000000 ) );
#266 = VECTOR( '', #280, 1.00000000000000 );
#267 = CARTESIAN_POINT( '', ( 0.100000000000000, 0.00000000000000, 0.00500000000000000 ) );
#268 = VECTOR( '', #281, 1.00000000000000 );
#269 = CARTESIAN_POINT( '', ( 0.100000000000000, 0.00000000000000, 0.00000000000000 ) );
#270 = VECTOR( '', #282, 1.00000000000000 );
#271 = DIRECTION( '', ( 0.00000000000000, 0.00000000000000, 1.00000000000000 ) );
#272 = DIRECTION( '', ( 0.00000000000000, 1.00000000000000, 0.00000000000000 ) );
#273 = DIRECTION( '', ( 0.00000000000000, 0.00000000000000, 1.00000000000000 ) );
#274 = DIRECTION( '', ( 0.00000000000000, -1.00000000000000, 0.00000000000000 ) );
#275 = DIRECTION( '', ( 1.00000000000000, 0.00000000000000, 0.00000000000000 ) );
#276 = DIRECTION( '', ( 0.00000000000000, 0.00000000000000, 1.00000000000000 ) );
#277 = DIRECTION( '', ( -1.00000000000000, 0.00000000000000, 0.00000000000000 ) );
#278 = DIRECTION( '', ( 0.00000000000000, 0.00000000000000, 1.00000000000000 ) );
#279 = DIRECTION( '', ( -1.00000000000000, 0.00000000000000, 0.00000000000000 ) );
#280 = DIRECTION( '', ( 1.00000000000000, 0.00000000000000, 0.00000000000000 ) );
#281 = DIRECTION( '', ( 0.00000000000000, -1.00000000000000, 0.00000000000000 ) );
#282 = DIRECTION( '', ( 0.00000000000000, 1.00000000000000, 0.00000000000000 ) );
ENDSEC;
END-ISO-10303-21;
